<svg xmlns="http://www.w3.org/2000/svg" viewBox="0 0 800 300" fill="none">
  <!-- Cyberpunk grid -->
  <defs>
    <pattern id="grid" width="40" height="40" patternUnits="userSpaceOnUse">
      <path d="M 40 0 L 0 0 0 40" fill="none" stroke="rgba(124,58,237,0.08)" stroke-width="1"/>
    </pattern>
    <linearGradient id="areaGrad" x1="0" y1="0" x2="0" y2="1">
      <stop offset="0%" stop-color="#7C3AED" stop-opacity="0.4"/>
      <stop offset="100%" stop-color="#7C3AED" stop-opacity="0"/>
    </linearGradient>
    <linearGradient id="lineGrad" x1="0" y1="0" x2="1" y2="0">
      <stop offset="0%" stop-color="#7C3AED"/>
      <stop offset="100%" stop-color="#00F0FF"/>
    </linearGradient>
  </defs>
  <rect width="800" height="300" fill="url(#grid)"/>

  <!-- Price line (gradient purple to cyan) -->
  <polyline points="40,220 100,200 160,210 220,180 280,190 340,150 400,160 460,120 520,130 560,100 620,110 680,80 740,60"
    stroke="url(#lineGrad)" stroke-width="2.5" fill="none" stroke-linecap="round" stroke-linejoin="round"/>
  <!-- Area fill -->
  <polyline points="40,220 100,200 160,210 220,180 280,190 340,150 400,160 460,120 520,130 560,100 620,110 680,80 740,60 740,280 40,280"
    fill="url(#areaGrad)" opacity="0.3"/>

  <!-- Volatility line -->
  <polyline points="40,180 100,190 160,170 220,200 280,175 340,195 400,170 460,185 520,165 560,190 620,170 680,185 740,175"
    stroke="#FFD600" stroke-width="1.5" fill="none" opacity="0.3" stroke-dasharray="6,4"/>

  <!-- Candlestick hints (neon) -->
  <g opacity="0.6">
    <line x1="160" y1="200" x2="160" y2="220" stroke="#FF3366" stroke-width="3" stroke-linecap="round"/>
    <line x1="280" y1="180" x2="280" y2="200" stroke="#00FF88" stroke-width="3" stroke-linecap="round"/>
    <line x1="400" y1="150" x2="400" y2="170" stroke="#00FF88" stroke-width="3" stroke-linecap="round"/>
    <line x1="520" y1="120" x2="520" y2="140" stroke="#FF3366" stroke-width="3" stroke-linecap="round"/>
    <line x1="680" y1="70" x2="680" y2="90" stroke="#00FF88" stroke-width="3" stroke-linecap="round"/>
  </g>

  <!-- Data point glow (neon purple) -->
  <circle cx="740" cy="60" r="4" fill="#7C3AED"/>
  <circle cx="740" cy="60" r="8" fill="#7C3AED" opacity="0.3"/>
  <circle cx="740" cy="60" r="14" fill="#7C3AED" opacity="0.08"/>
  <circle cx="740" cy="60" r="22" fill="#00F0FF" opacity="0.04"/>
</svg>
